<mxfile host="Electron" modified="2024-06-17T12:36:18.642Z" agent="Mozilla/5.0 (Windows NT 10.0; Win64; x64) AppleWebKit/537.36 (KHTML, like Gecko) draw.io/24.5.3 Chrome/124.0.6367.207 Electron/30.0.6 Safari/537.36" etag="94ZCjUKvGlq4VR6CLe0Z" version="24.5.3" type="device">
  <diagram name="Logic" id="qclcrL0BQ5BWzItgZD5F">
    <mxGraphModel dx="1434" dy="844" grid="1" gridSize="10" guides="1" tooltips="1" connect="1" arrows="1" fold="1" page="1" pageScale="1" pageWidth="827" pageHeight="1169" math="0" shadow="0">
      <root>
        <mxCell id="0" />
        <mxCell id="1" parent="0" />
        <mxCell id="0dlk2uTqPazcRkubphTU-1" style="edgeStyle=orthogonalEdgeStyle;rounded=0;orthogonalLoop=1;jettySize=auto;html=1;exitX=0.5;exitY=1;exitDx=0;exitDy=0;entryX=0.5;entryY=0;entryDx=0;entryDy=0;" edge="1" parent="1" source="0dlk2uTqPazcRkubphTU-2" target="0dlk2uTqPazcRkubphTU-4">
          <mxGeometry relative="1" as="geometry" />
        </mxCell>
        <mxCell id="0dlk2uTqPazcRkubphTU-2" value="EventsRunner.RunSequence()" style="rounded=1;whiteSpace=wrap;html=1;" vertex="1" parent="1">
          <mxGeometry x="95" y="50" width="180" height="40" as="geometry" />
        </mxCell>
        <mxCell id="0dlk2uTqPazcRkubphTU-3" style="edgeStyle=orthogonalEdgeStyle;rounded=0;orthogonalLoop=1;jettySize=auto;html=1;exitX=0.5;exitY=1;exitDx=0;exitDy=0;entryX=0.5;entryY=0;entryDx=0;entryDy=0;" edge="1" parent="1" source="0dlk2uTqPazcRkubphTU-4" target="0dlk2uTqPazcRkubphTU-6">
          <mxGeometry relative="1" as="geometry" />
        </mxCell>
        <mxCell id="0dlk2uTqPazcRkubphTU-4" value="Wait.Run()" style="rounded=1;whiteSpace=wrap;html=1;" vertex="1" parent="1">
          <mxGeometry x="95" y="130" width="180" height="40" as="geometry" />
        </mxCell>
        <mxCell id="0dlk2uTqPazcRkubphTU-5" style="edgeStyle=orthogonalEdgeStyle;rounded=0;orthogonalLoop=1;jettySize=auto;html=1;exitX=0.5;exitY=1;exitDx=0;exitDy=0;entryX=0.5;entryY=0;entryDx=0;entryDy=0;" edge="1" parent="1" source="0dlk2uTqPazcRkubphTU-6" target="0dlk2uTqPazcRkubphTU-9">
          <mxGeometry relative="1" as="geometry" />
        </mxCell>
        <mxCell id="0dlk2uTqPazcRkubphTU-6" value="Waiter.Wait(Wait)" style="rounded=1;whiteSpace=wrap;html=1;" vertex="1" parent="1">
          <mxGeometry x="95" y="210" width="180" height="40" as="geometry" />
        </mxCell>
        <mxCell id="0dlk2uTqPazcRkubphTU-7" style="edgeStyle=orthogonalEdgeStyle;rounded=0;orthogonalLoop=1;jettySize=auto;html=1;exitX=0.5;exitY=1;exitDx=0;exitDy=0;entryX=0.5;entryY=0;entryDx=0;entryDy=0;" edge="1" parent="1" source="0dlk2uTqPazcRkubphTU-9" target="0dlk2uTqPazcRkubphTU-10">
          <mxGeometry relative="1" as="geometry" />
        </mxCell>
        <mxCell id="0dlk2uTqPazcRkubphTU-8" style="edgeStyle=orthogonalEdgeStyle;rounded=0;orthogonalLoop=1;jettySize=auto;html=1;exitX=1;exitY=0.5;exitDx=0;exitDy=0;entryX=0;entryY=0.5;entryDx=0;entryDy=0;" edge="1" parent="1" source="0dlk2uTqPazcRkubphTU-9" target="0dlk2uTqPazcRkubphTU-12">
          <mxGeometry relative="1" as="geometry" />
        </mxCell>
        <mxCell id="0dlk2uTqPazcRkubphTU-9" value="Wait.Duration &amp;gt; 0 ?" style="rhombus;whiteSpace=wrap;html=1;" vertex="1" parent="1">
          <mxGeometry x="145" y="300" width="80" height="80" as="geometry" />
        </mxCell>
        <mxCell id="0dlk2uTqPazcRkubphTU-10" value="" style="ellipse;html=1;shape=endState;fillColor=#000000;strokeColor=#ff0000;" vertex="1" parent="1">
          <mxGeometry x="170" y="430" width="30" height="30" as="geometry" />
        </mxCell>
        <mxCell id="0dlk2uTqPazcRkubphTU-11" style="edgeStyle=orthogonalEdgeStyle;rounded=0;orthogonalLoop=1;jettySize=auto;html=1;exitX=0.5;exitY=1;exitDx=0;exitDy=0;entryX=0.5;entryY=0;entryDx=0;entryDy=0;" edge="1" parent="1" source="0dlk2uTqPazcRkubphTU-12" target="0dlk2uTqPazcRkubphTU-13">
          <mxGeometry relative="1" as="geometry" />
        </mxCell>
        <mxCell id="0dlk2uTqPazcRkubphTU-12" value="Waiter.DoWait(Wait)" style="rounded=1;whiteSpace=wrap;html=1;" vertex="1" parent="1">
          <mxGeometry x="290" y="320" width="180" height="40" as="geometry" />
        </mxCell>
        <mxCell id="0dlk2uTqPazcRkubphTU-13" value="Wait.IsFinished()" style="rounded=1;whiteSpace=wrap;html=1;" vertex="1" parent="1">
          <mxGeometry x="290" y="410" width="180" height="40" as="geometry" />
        </mxCell>
      </root>
    </mxGraphModel>
  </diagram>
</mxfile>
